<svg xmlns="http://www.w3.org/2000/svg" width="48" height="48" viewBox="0 0 512 512"><rect width="512" height="512" fill="#fff" rx="0" ry="0"/><defs><clipPath id="a"><rect width="512" height="512" rx="0" ry="0"/></clipPath>
  <style>
    @media (prefers-color-scheme: dark) {
      svg { filter: invert(0%) hue-rotate(0deg) saturate(100%) contrast(100%) brightness(1); }
    }
  </style></defs><g clip-path="url(#a)"><g transform="matrix(.9 0 0 .9 26 26)"><defs><radialGradient id="b" cx="260.382" cy="180.718" r="30.54" gradientUnits="userSpaceOnUse"><stop offset="0" stop-color="#cfc9d6"/><stop offset="1" stop-color="#e6e0ee"/></radialGradient><radialGradient id="c" cx="219.551" cy="180.718" r="30.54" gradientUnits="userSpaceOnUse"><stop offset="0" stop-color="#cfc9d6"/><stop offset="1" stop-color="#e6e0ee"/></radialGradient><radialGradient id="d" cx="219.8" cy="167.8" r="5.465" gradientUnits="userSpaceOnUse"><stop offset="0" stop-color="#262626"/><stop offset="1" stop-color="#464646"/></radialGradient><radialGradient id="e" cx="267.2" cy="190.267" r="5.465" gradientUnits="userSpaceOnUse"><stop offset="0" stop-color="#262626"/><stop offset="1" stop-color="#464646"/></radialGradient></defs><g stroke-miterlimit="10" data-paper-data="{&quot;isPaintingLayer&quot;:true}" style="mix-blend-mode:normal"><path fill="none" stroke="#140d21" stroke-linecap="round" stroke-width="3" d="M41.383 36s-1.308-10.56 2.015-15.823c3.324-5.264 9.431-4.568 13.949-9.463C61.864 5.818 60.633 1.5 60.633 1.5"/><path fill="url(#b)" d="M273.99 156.073c4.362 6.709 6.724 17.779 6.895 29.548.115 7.935.547 16.995-5.046 22.191-6.239 5.797-13.318 3.612-17.74-1.619-2.543-3.008-4.509-11.59-7.328-14.326-2.707-2.628-7.622-3.167-10.868-3.27 0-.027-.078-35.46-.08-35.486 11.316-.13 26.921-8.18 34.167 2.962" data-paper-data="{&quot;index&quot;:null}" transform="translate(-198.992 -122.375)"/><path fill="#ccc7d3" d="M74.979 81.778c8.8-7.923 5.884-31.357 6.144-29.538.5 3.516.782 7.225.837 11.006.115 7.935.547 16.995-5.046 22.191-6.24 5.797-13.318 3.612-17.74-1.619-1.418-1.677-2.656-5.087-3.963-8.25-.52-1.26 10.967 14.133 19.768 6.21" data-paper-data="{&quot;index&quot;:null}"/><path fill="#eee8f7" d="M75.064 33.448q.702 1.08 1.334 2.303c.194.374-3.3-4.036-10.783-5.2-9.978-1.55-24.716-.052-24.717-.065 11.316-.13 26.921-8.18 34.166 2.962" data-paper-data="{&quot;index&quot;:null}"/><path fill="url(#c)" d="M205.944 156.073c7.245-11.143 22.85-3.092 34.166-2.962l-.08 35.486c-3.246.103-8.16.642-10.868 3.27-2.819 2.736-4.785 11.318-7.328 14.326-4.422 5.231-11.5 7.416-17.74 1.619-5.593-5.196-5.16-14.256-5.046-22.19.172-11.77 2.533-22.84 6.896-29.55" data-paper-data="{&quot;index&quot;:null}" transform="translate(-198.992 -122.375)"/><path fill="#ccc7d3" d="M26.805 75.568c-1.307 3.163-2.545 6.573-3.963 8.25-4.422 5.231-11.5 7.416-17.74 1.619C-.49 80.241-.058 71.181.057 63.247A88 88 0 0 1 .894 52.24c.259-1.819-2.657 21.615 6.144 29.538s20.288-7.47 19.767-6.21" data-paper-data="{&quot;index&quot;:null}"/><g fill="#272727" stroke="#000"><path d="M6.529 70.063v-4.75h15.875v4.75z"/><path d="M16.841 75.625h-4.75V59.75h4.75z"/><path stroke="none" d="M6.529 70.063v-4.75h15.875v4.75z"/><path stroke="none" d="M16.841 75.625h-4.75V59.75h4.75z"/><path stroke-width=".5" d="m11.904 70.278 5.25-5.25z"/><path stroke-width=".5" d="m17.154 70.278-5.25-5.25z" data-paper-data="{&quot;index&quot;:null}"/></g><path fill="#eee8f7" d="M6.952 33.448c7.245-11.143 22.85-3.092 34.166-2.962 0 .013-14.74-1.485-24.717.066-7.483 1.163-10.976 5.573-10.783 5.2q.632-1.225 1.334-2.304" data-paper-data="{&quot;index&quot;:null}"/><path fill="#e6e0ee" d="M41.069 55.735c-.016 7.24-.03 10.476-.03 10.487-3.247.103-8.162.642-10.869 3.27-.514.498 1.405-6.474 3.627-9.793 2.864-4.28 7.273-4.38 7.272-3.964" data-paper-data="{&quot;index&quot;:null}"/><path fill="#e6e0ee" d="M48.22 59.699c2.221 3.32 4.14 10.291 3.626 9.793-2.707-2.628-7.622-3.167-10.869-3.27 0-.011-.014-3.247-.03-10.487 0-.416 4.409-.315 7.272 3.964" data-paper-data="{&quot;index&quot;:null}"/><g stroke-width="0"><path fill="#262626" d="M13.108 45.425a7.7 7.7 0 1 1 15.4 0 7.7 7.7 0 0 1-15.4 0"/><path fill="url(#d)" d="M214.335 167.8a5.465 5.465 0 1 1 10.93 0 5.465 5.465 0 0 1-10.93 0" transform="translate(-198.992 -122.375)"/></g><g stroke="#000" stroke-width=".5"><path fill="#f33636" d="M67.541 46.642a3.6 3.6 0 1 1 7.2 0 3.6 3.6 0 0 1-7.2 0z" data-paper-data="{&quot;index&quot;:null}"/><path fill="#4135f2" d="M60.2 46.58a3.6 3.6 0 1 1-7.2 0 3.6 3.6 0 0 1 7.2 0z"/><path fill="#54f235" d="M60.333 53.913a3.6 3.6 0 1 1 7.2 0 3.6 3.6 0 0 1-7.2 0z" data-paper-data="{&quot;index&quot;:null}"/><path fill="#eff235" d="M67.408 39.475a3.6 3.6 0 1 1-7.2 0 3.6 3.6 0 0 1 7.2 0z"/></g><g stroke-width="0"><path fill="#262626" d="M60.508 67.892a7.7 7.7 0 1 1 15.4 0 7.7 7.7 0 0 1-15.4 0"/><path fill="url(#e)" d="M261.735 190.267a5.465 5.465 0 1 1 10.93 0 5.465 5.465 0 0 1-10.93 0" transform="translate(-198.992 -122.375)"/></g><g fill="#272727" stroke-width="0"><path d="M36.602 41.22c0-.96.724-1.738 1.618-1.738.893 0 1.617.778 1.617 1.738s-.724 1.737-1.617 1.737c-.894 0-1.618-.778-1.618-1.737m5.578 0c0-.96.724-1.738 1.617-1.738s1.617.778 1.617 1.738-.724 1.737-1.617 1.737-1.617-.778-1.617-1.737"/><path d="M38.354 42.968v-3.486h5.598v3.486z"/></g></g></g></g></svg>