<svg width="48" height="48" viewBox="0 0 512 512"
       xmlns="http://www.w3.org/2000/svg">
    
    <defs><clipPath id="iconClip"><rect x="0" y="0" width="512" height="512" rx="0" ry="0" /></clipPath></defs>
    <g clip-path="url(#iconClip)">
      <g transform="translate(0,0) scale(1)">
        <g transform="translate(26, 26) scale(0.9)">
        <defs><radialGradient id="color-1" cx="260.38226" cy="180.71805" r="30.54014" gradientUnits="userSpaceOnUse"><stop offset="0" stop-color="#cfc9d6"/><stop offset="1" stop-color="#e6e0ee"/></radialGradient><radialGradient id="color-2" cx="219.55107" cy="180.71805" r="30.54014" gradientUnits="userSpaceOnUse"><stop offset="0" stop-color="#cfc9d6"/><stop offset="1" stop-color="#e6e0ee"/></radialGradient><radialGradient id="color-3" cx="219.8" cy="167.8" r="5.46451" gradientUnits="userSpaceOnUse"><stop offset="0" stop-color="#262626"/><stop offset="1" stop-color="#464646"/></radialGradient><radialGradient id="color-4" cx="267.2" cy="190.26667" r="5.46451" gradientUnits="userSpaceOnUse"><stop offset="0" stop-color="#262626"/><stop offset="1" stop-color="#464646"/></radialGradient></defs><g transform="translate(-198.99188,-122.375)"><g stroke-dasharray="" stroke-miterlimit="10" data-paper-data="{&quot;isPaintingLayer&quot;:true}" style="mix-blend-mode: normal"><path fill="none" stroke="#140d21" stroke-linecap="round" stroke-width="3" d="M240.375,158.375c0,0 -1.30773,-10.55914 2.01534,-15.82296c3.32307,-5.26382 9.43089,-4.56824 13.94809,-9.46349c4.5172,-4.89525 3.28656,-9.21355 3.28656,-9.21355"/><path fill="url(#color-1)" stroke="#000000" stroke-width="0" d="M273.98962,156.07252c4.36278,6.70915 6.72399,17.77925 6.89522,29.54868c0.11544,7.93469 0.54722,16.99446 -5.04547,22.19078c-6.2394,5.7972 -13.31826,3.61234 -17.74033,-1.619c-2.543,-3.0084 -4.50888,-11.5904 -7.32755,-14.32622c-2.7074,-2.62782 -7.62221,-3.16654 -10.86889,-3.2694c-0.0004,-0.02764 -0.07804,-35.46128 -0.07953,-35.48603c11.31573,-0.13003 26.92114,-8.18091 34.16656,2.96119z" data-paper-data="{&quot;index&quot;:null}"/><path fill="#ccc7d3" stroke="#000000" stroke-width="0" d="M273.97054,204.15307c8.8005,-7.92303 5.88481,-31.3571 6.14402,-29.53775c0.50087,3.51549 0.78194,7.22459 0.83695,11.00588c0.11544,7.93469 0.54722,16.99446 -5.04547,22.19078c-6.2394,5.7972 -13.31826,3.61234 -17.74033,-1.619c-1.41771,-1.67716 -2.65604,-5.08659 -3.96277,-8.24961c-0.5209,-1.26087 10.9671,14.13273 19.7676,6.2097z" data-paper-data="{&quot;index&quot;:null}"/><path fill="#eee8f7" stroke="#000000" stroke-width="0" d="M274.05628,155.82251c0.46773,0.71929 0.91246,1.4887 1.33395,2.30372c0.1932,0.37358 -3.29974,-4.03616 -10.78331,-5.19953c-9.97772,-1.55109 -24.71644,-0.05304 -24.71718,-0.06537c11.31573,-0.13003 26.92114,-8.18091 34.16656,2.96119z" data-paper-data="{&quot;index&quot;:null}"/><path fill="url(#color-2)" stroke="#000000" stroke-width="0" d="M205.9437,156.07252c7.24542,-11.1421 22.85083,-3.09122 34.16656,-2.96119c-0.00149,0.02475 -0.07913,35.45839 -0.07953,35.48603c-3.24668,0.10286 -8.16149,0.64158 -10.86889,3.2694c-2.81867,2.73582 -4.78455,11.31782 -7.32755,14.32622c-4.42207,5.23134 -11.50093,7.4162 -17.74033,1.619c-5.59269,-5.19632 -5.16091,-14.25609 -5.04547,-22.19078c0.17123,-11.76943 2.53244,-22.83953 6.89522,-29.54868z" data-paper-data="{&quot;index&quot;:null}"/><path fill="#ccc7d3" stroke="#000000" stroke-width="0" d="M225.79706,197.94337c-1.30673,3.16302 -2.54506,6.57245 -3.96277,8.24961c-4.42207,5.23134 -11.50093,7.4162 -17.74033,1.619c-5.59269,-5.19632 -5.16091,-14.25609 -5.04547,-22.19078c0.05501,-3.78129 0.33608,-7.49039 0.83695,-11.00588c0.25921,-1.81935 -2.65648,21.61472 6.14402,29.53775c8.8005,7.92303 20.2885,-7.47057 19.7676,-6.2097z" data-paper-data="{&quot;index&quot;:null}"/><path fill="#9966ff" stroke="#000000" stroke-width="2" d=""/><g fill="#272727" stroke="#000000"><g><path d="M205.52083,192.4375v-4.75h15.875v4.75z"/><path d="M215.83334,198h-4.75v-15.875h4.75z"/></g><path stroke-width="0" d="M205.52083,192.4375v-4.75h15.875v4.75z"/><path stroke-width="0" d="M215.83334,198h-4.75v-15.875h4.75z"/><path stroke-width="0.5" d="M210.89583,192.65341l5.25,-5.25z"/><path stroke-width="0.5" d="M216.14584,192.65341l-5.25,-5.25z" data-paper-data="{&quot;index&quot;:null}"/></g><path fill="#eee8f7" stroke="#000000" stroke-width="0" d="M205.9437,155.82252c7.24542,-11.1421 22.85083,-3.09122 34.16656,-2.96119c-0.00074,0.01233 -14.73946,-1.48572 -24.71718,0.06537c-7.48357,1.16337 -10.97651,5.57311 -10.78331,5.19953c0.42149,-0.81502 0.86622,-1.58443 1.33395,-2.30372z" data-paper-data="{&quot;index&quot;:null}"/><path fill="#e6e0ee" stroke="#000000" stroke-width="0" d="M240.06066,178.11041c-0.01602,7.24006 -0.02976,10.47536 -0.02993,10.48695c-3.24668,0.10286 -8.16149,0.64158 -10.86889,3.2694c-0.5135,0.4984 1.40493,-6.47328 3.62689,-9.79312c2.86378,-4.27878 7.27285,-4.37971 7.27193,-3.96323z" data-paper-data="{&quot;index&quot;:null}"/><path fill="#e6e0ee" stroke="#000000" stroke-width="0" d="M247.21127,182.07364c2.22196,3.31984 4.14038,10.29152 3.62689,9.79312c-2.7074,-2.62782 -7.62221,-3.16654 -10.86889,-3.2694c-0.00017,-0.01159 -0.01391,-3.24689 -0.02993,-10.48695c-0.00092,-0.41648 4.40816,-0.31555 7.27193,3.96323z" data-paper-data="{&quot;index&quot;:null}"/><g stroke="#000000" stroke-width="0"><path fill="#262626" d="M212.1,167.8c0,-4.2526 3.4474,-7.7 7.7,-7.7c4.2526,0 7.7,3.4474 7.7,7.7c0,4.2526 -3.4474,7.7 -7.7,7.7c-4.2526,0 -7.7,-3.4474 -7.7,-7.7z"/><path fill="url(#color-3)" d="M214.33549,167.8c0,-3.01797 2.44655,-5.46452 5.46452,-5.46452c3.01797,0 5.46451,2.44655 5.46451,5.46452c0,3.01797 -2.44655,5.46451 -5.46451,5.46451c-3.01797,0 -5.46452,-2.44655 -5.46452,-5.46451z"/></g><g stroke="#000000" stroke-width="0.5"><path fill="#f33636" d="M266.53333,169.01668c0,-1.98823 1.61177,-3.6 3.6,-3.6c1.98823,0 3.6,1.61177 3.6,3.6c0,1.98823 -1.61177,3.6 -3.6,3.6c-1.98823,0 -3.6,-1.61177 -3.6,-3.6z" data-paper-data="{&quot;index&quot;:null}"/><path fill="#4135f2" d="M259.19167,168.95418c0,1.98823 -1.61177,3.6 -3.6,3.6c-1.98823,0 -3.6,-1.61177 -3.6,-3.6c0,-1.98823 1.61177,-3.6 3.6,-3.6c1.98823,0 3.6,1.61177 3.6,3.6z"/><path fill="#54f235" d="M259.325,176.28751c0,-1.98823 1.61177,-3.6 3.6,-3.6c1.98823,0 3.6,1.61177 3.6,3.6c0,1.98823 -1.61177,3.6 -3.6,3.6c-1.98823,0 -3.6,-1.61177 -3.6,-3.6z" data-paper-data="{&quot;index&quot;:null}"/><path fill="#eff235" d="M266.39999,161.85c0,1.98823 -1.61177,3.6 -3.6,3.6c-1.98823,0 -3.6,-1.61177 -3.6,-3.6c0,-1.98823 1.61177,-3.6 3.6,-3.6c1.98823,0 3.6,1.61177 3.6,3.6z"/></g><g stroke="#000000" stroke-width="0"><path fill="#262626" d="M259.5,190.26667c0,-4.2526 3.4474,-7.7 7.7,-7.7c4.2526,0 7.7,3.4474 7.7,7.7c0,4.2526 -3.4474,7.7 -7.7,7.7c-4.2526,0 -7.7,-3.4474 -7.7,-7.7z"/><path fill="url(#color-4)" d="M261.73549,190.26667c0,-3.01797 2.44655,-5.46452 5.46452,-5.46452c3.01797,0 5.46451,2.44655 5.46451,5.46452c0,3.01797 -2.44655,5.46451 -5.46451,5.46451c-3.01797,0 -5.46452,-2.44655 -5.46452,-5.46451z"/></g><g fill="#272727" stroke-width="0"><path d="M235.59426,163.59462c0,-0.95974 0.72403,-1.73776 1.61716,-1.73776c0.89313,0 1.61716,0.77802 1.61716,1.73776c0,0.95974 -0.72403,1.73776 -1.61716,1.73776c-0.89313,0 -1.61716,-0.77802 -1.61716,-1.73776z"/><path d="M241.17144,163.59462c0,-0.95973 0.72403,-1.73776 1.61715,-1.73776c0.89312,0 1.61715,0.77802 1.61715,1.73776c0,0.95973 -0.72403,1.73776 -1.61715,1.73776c-0.89312,0 -1.61715,-0.77802 -1.61715,-1.73776z"/><path d="M237.34612,165.34314v-3.48627h5.59767v3.48627z"/></g></g></g>
      </g>
      </g>
    </g>
  </svg>